<svg width="24" height="18" viewBox="0 0 24 18" fill="none" xmlns="http://www.w3.org/2000/svg">
<path fill-rule="evenodd" clip-rule="evenodd" d="M4.04678 14.898C6.41232 16.9563 9.0906 18 12.0071 18C14.4964 18 16.8259 17.2317 18.9305 15.7169C19.3498 15.4148 19.4439 14.8318 19.1403 14.4145C18.8369 13.9973 18.251 13.9036 17.8315 14.2055C16.0534 15.4855 14.0938 16.1345 12.0071 16.1345C6.33981 16.1345 3.0961 11.3875 1.96469 9.34651C1.84604 9.13245 1.84714 8.87703 1.96762 8.66351C3.12137 6.61942 6.40921 1.86518 12.0071 1.86518C17.6056 1.86518 20.8835 6.62015 22.033 8.66442C22.1528 8.87739 22.1539 9.13208 22.036 9.34578C21.8027 9.76808 21.4118 10.4239 20.8729 11.151C20.5658 11.5657 20.6544 12.1496 21.0712 12.4553C21.4879 12.7608 22.0748 12.6726 22.3819 12.258C22.9819 11.4484 23.4184 10.716 23.679 10.2441C24.1106 9.46293 24.1067 8.53197 23.6691 7.75369C23.0976 6.73729 21.8514 4.78193 19.9262 3.10694C17.5572 1.04536 14.8927 0 12.0071 0C9.12265 0 6.45718 1.04445 4.08487 3.10457C2.15695 4.77901 0.906712 6.73401 0.333043 7.75023C-0.107509 8.5307 -0.111171 9.4642 0.323155 10.2476C0.887302 11.2653 2.12125 13.2226 4.04678 14.898ZM12.4999 4C15.5327 4 18 6.46733 18 9.50009C18 12.5329 15.5327 15 12.4999 15C9.46733 15 7 12.5329 7 9.50009C7 6.46733 9.46715 4 12.4999 4ZM16 9.5C16 11.4299 14.4299 13 12.4999 13C10.5701 13 9 11.4299 9 9.5C9 7.57013 10.5701 6 12.4999 6C14.4299 6 16 7.57013 16 9.5ZM12.3804 8.44839C12.3947 9.0632 12.8838 9.57611 13.4974 9.61721C13.5208 9.61877 13.5441 9.61971 13.5672 9.61987C13.9164 9.62362 14.1197 10.0106 13.9234 10.2992C13.6137 10.7543 13.0754 11.0414 12.4736 10.9951C11.6945 10.9353 11.0649 10.3055 11.0049 9.52641C10.9586 8.92458 11.2457 8.38635 11.7009 8.0766C11.9897 7.88016 12.3764 8.08395 12.3801 8.43324C12.3801 8.43824 12.3803 8.44339 12.3804 8.44839Z" fill="#ffffff"/>
</svg>