<svg width="9" height="12" viewBox="0 0 9 12" fill="none" xmlns="http://www.w3.org/2000/svg">
<path fill-rule="evenodd" clip-rule="evenodd" d="M0 4.11429C0 1.84553 1.84553 0 4.11429 0C6.38304 0 8.22857 1.84553 8.22857 4.11429C8.22857 4.85792 8.02768 5.58683 7.64869 6.22199L4.46587 11.536C4.33467 11.756 4.01536 11.7594 3.87993 11.5406L0.613737 6.27758C0.212274 5.62869 0 4.88069 0 4.11429ZM2.05257 4.11429C2.05257 5.23934 2.96354 6.176 4.11429 6.176C5.27728 6.176 6.176 5.22942 6.176 4.11429C6.176 2.97991 5.24866 2.05257 4.11429 2.05257C2.97991 2.05257 2.05257 2.97991 2.05257 4.11429Z" fill="#A7A6C5"/>
</svg>
