<svg width="312" height="48" viewBox="0 0 312 48" fill="none" xmlns="http://www.w3.org/2000/svg">
<g id="Logo">
<g id="time-management">
<path id="Path" d="M3.31024 23.9999C3.30868 15.6305 8.34957 8.08454 16.0818 4.88151C23.814 1.67847 32.7144 3.44934 38.6316 9.36817L40.9704 7.02941C31.5895 -2.29407 16.4337 -2.2708 7.08144 7.08144C-2.2708 16.4337 -2.29407 31.5895 7.02941 40.9704L9.36817 38.6316C5.48378 34.7538 3.30384 29.4886 3.31024 23.9999Z" fill="#F8D068"/>
<path id="Combined Shape" fill-rule="evenodd" clip-rule="evenodd" d="M48 26.9655C48 28.0701 47.1046 28.9655 46 28.9655H41.5151C41.133 30.3291 40.5899 31.6424 39.8971 32.8775L43.065 36.0448C43.8462 36.8258 43.8462 38.0923 43.0651 38.8734L38.8709 43.0676C38.0898 43.8487 36.8234 43.8486 36.0424 43.0674L32.8751 39.8996C31.6406 40.5913 30.3282 41.1336 28.9655 41.515V46C28.9655 47.1045 28.0701 48 26.9655 48H21.0345C19.9299 48 19.0345 47.1045 19.0345 46V41.515C17.671 41.1338 16.3577 40.5915 15.1225 39.8996L11.9552 43.0674C11.1742 43.8486 9.90775 43.8487 9.12665 43.0676L7.02954 40.9705L9.3683 38.6317L16.3929 31.6072C20.6053 35.7428 27.3634 35.7118 31.5376 31.5376C35.7118 27.3633 35.7429 20.6052 31.6072 16.3928L38.6317 9.36826L40.9705 7.03198L43.0676 9.12909C43.8487 9.91019 43.8487 11.1766 43.0675 11.9576L39.8996 15.1249C40.5914 16.3594 41.1337 17.6718 41.5151 19.0345H46C47.1046 19.0345 48 19.9299 48 21.0345V26.9655ZM24.8276 43.8621H23.1724V45.5172H24.8276V43.8621ZM37.4514 38.6301L38.6216 37.4598L39.7918 38.6301L38.6216 39.8003L37.4514 38.6301ZM45.5173 23.1724H43.8621V24.8276H45.5173V23.1724Z" fill="white"/>
<g id="Group">
<path id="Path_2" d="M23.9999 8.27592C23.5429 8.27592 23.1724 7.9054 23.1724 7.44833V5.79316C23.1724 5.3361 23.5429 4.96558 23.9999 4.96558C24.457 4.96558 24.8275 5.3361 24.8275 5.79316V7.44833C24.8275 7.9054 24.457 8.27592 23.9999 8.27592Z" fill="#F8D068"/>
<path id="Path_3" d="M32.276 10.4939C31.9804 10.4936 31.7075 10.3358 31.5599 10.0798C31.4123 9.82378 31.4123 9.50848 31.5601 9.25256L32.3877 7.81835C32.6178 7.4259 33.1215 7.29273 33.5154 7.52019C33.9094 7.74766 34.0459 8.25047 33.8211 8.64594L32.9935 10.0801C32.8455 10.3365 32.5719 10.4942 32.276 10.4939Z" fill="#F8D068"/>
<path id="Path_4" d="M15.7242 10.4939C15.4282 10.4942 15.1547 10.3365 15.0067 10.0801L14.1791 8.64594C13.9542 8.25047 14.0908 7.74766 14.4847 7.52019C14.8787 7.29273 15.3824 7.4259 15.6125 7.81835L16.4401 9.25256C16.5878 9.50848 16.5879 9.82378 16.4403 10.0798C16.2926 10.3358 16.0197 10.4936 15.7242 10.4939Z" fill="#F8D068"/>
<path id="Path_5" d="M9.66538 16.5517C9.52006 16.552 9.37727 16.5137 9.25158 16.4408L7.81738 15.6132C7.42492 15.3831 7.29175 14.8794 7.51922 14.4855C7.74668 14.0915 8.24949 13.955 8.64496 14.1798L10.0792 15.0074C10.4035 15.1947 10.5617 15.5765 10.4647 15.9383C10.3678 16.3001 10.0399 16.5517 9.66538 16.5517Z" fill="#F8D068"/>
<path id="Path_6" d="M7.44833 24.8275H5.79316C5.3361 24.8275 4.96558 24.457 4.96558 23.9999C4.96558 23.5429 5.3361 23.1724 5.79316 23.1724H7.44833C7.9054 23.1724 8.27592 23.5429 8.27592 23.9999C8.27592 24.457 7.9054 24.8275 7.44833 24.8275Z" fill="#F8D068"/>
<path id="Path_7" d="M8.2329 33.9311C7.85834 33.931 7.53049 33.6795 7.43355 33.3177C7.3366 32.9559 7.49474 32.5741 7.8191 32.3868L9.25331 31.5592C9.50951 31.409 9.82654 31.4076 10.0841 31.5555C10.3416 31.7034 10.5001 31.978 10.4994 32.275C10.4988 32.5719 10.3391 32.8458 10.0809 32.9926L8.64669 33.8202C8.52101 33.8931 8.37821 33.9314 8.2329 33.9311Z" fill="#F8D068"/>
</g>
<path id="Path_8" d="M24.0001 32.276C21.8039 32.2821 19.697 31.4075 18.1507 29.8478C17.9359 29.6397 17.8501 29.3319 17.9262 29.0427C18.0024 28.7535 18.2286 28.5278 18.5181 28.4525C18.8075 28.3772 19.1151 28.4639 19.3226 28.6793C20.988 30.3804 23.4388 31.0557 25.7405 30.4477C28.0421 29.8397 29.8397 28.0421 30.4477 25.7405C31.0557 23.4388 30.3804 20.988 28.6793 19.3226C28.4639 19.1151 28.3772 18.8075 28.4525 18.5181C28.5278 18.2286 28.7535 18.0024 29.0427 17.9262C29.3319 17.8501 29.6397 17.9359 29.8478 18.1507C32.2124 20.5173 32.9195 24.0747 31.6399 27.1657C30.3602 30.2567 27.3455 32.2732 24.0001 32.276Z" fill="#F8D068"/>
<path id="Path_9" d="M22.3447 24.8275H14.8964C14.4394 24.8275 14.0688 24.457 14.0688 23.9999C14.0688 23.5429 14.4394 23.1724 14.8964 23.1724H22.3447C22.8018 23.1724 23.1723 23.5429 23.1723 23.9999C23.1723 24.457 22.8018 24.8275 22.3447 24.8275Z" fill="white"/>
<path id="Path_10" d="M23.9999 23.1723C23.5429 23.1723 23.1724 22.8018 23.1724 22.3448V11.5861C23.1724 11.1291 23.5429 10.7585 23.9999 10.7585C24.457 10.7585 24.8275 11.1291 24.8275 11.5861V22.3448C24.8275 22.8018 24.457 23.1723 23.9999 23.1723Z" fill="white"/>
<circle id="Oval" cx="24.0001" cy="24.0001" r="2.48276" fill="#F8D068"/>
</g>
<g id="clockify">
<path id="clock" fill-rule="evenodd" clip-rule="evenodd" d="M85.3378 38.2805C84.3778 38.9605 83.3778 39.5205 82.3378 40.0005C75.4978 43.0405 67.1778 41.4005 62.0978 35.4005C55.9378 28.1605 56.8178 17.2405 64.0978 11.0805C70.2178 5.88048 78.9778 5.72048 85.2578 10.2005L85.3778 10.2805L85.4578 10.3605C85.7778 10.7205 85.7378 11.2405 85.4178 11.5205L81.6578 14.6805C81.4178 14.8805 81.0978 14.9205 80.7778 14.7605C76.8978 12.4805 71.7778 12.8005 68.1378 15.8805C63.5378 19.8005 62.9778 26.7205 66.8978 31.3605C70.5378 35.6405 76.8178 36.4405 81.3778 33.3605C81.3778 33.3605 81.4178 33.3605 81.4178 33.3205C81.7378 33.1205 82.2178 33.2005 82.4578 33.5205L85.4578 37.0805C85.7778 37.4005 85.7378 37.9205 85.4178 38.2005H85.4177C85.3978 38.2005 85.3878 38.2005 85.3828 38.2055C85.3778 38.2105 85.3778 38.2205 85.3778 38.2405V38.2405H85.3378V38.2805ZM109.658 40.7205C109.658 41.1605 109.218 41.4805 108.658 41.4805H91.6978C91.2578 41.4805 90.8978 41.1605 90.8978 40.7205V8.08048C90.8978 7.56048 91.2578 7.12048 91.6978 7.12048H96.3778C96.8178 7.12048 97.1378 7.56048 97.1378 8.08048V35.2405H108.658C109.218 35.2405 109.658 35.6005 109.658 36.0405V40.7205ZM129.858 41.5205C139.338 41.5205 147.058 33.8005 147.058 24.3205C147.058 14.8405 139.338 7.12048 129.858 7.12048C120.378 7.12048 112.658 14.8405 112.658 24.3205C112.658 33.8005 120.378 41.5205 129.858 41.5205ZM118.898 24.3205C118.898 30.3605 123.818 35.2405 129.858 35.2405C135.898 35.2405 140.778 30.3605 140.778 24.3205C140.778 18.2805 135.898 13.3605 129.858 13.3605C123.818 13.3605 118.898 18.2805 118.898 24.3205ZM175.178 40.0005C176.218 39.5205 177.218 38.9605 178.178 38.2805V38.2405H178.218C178.218 38.2205 178.218 38.2105 178.223 38.2055C178.228 38.2005 178.238 38.2005 178.258 38.2005C178.578 37.9205 178.618 37.4005 178.298 37.0805L175.298 33.5205C175.058 33.2005 174.578 33.1205 174.258 33.3205C174.258 33.3605 174.218 33.3605 174.218 33.3605C169.658 36.4405 163.378 35.6405 159.738 31.3605C155.818 26.7205 156.378 19.8005 160.978 15.8805C164.618 12.8005 169.738 12.4805 173.618 14.7605C173.938 14.9205 174.258 14.8805 174.498 14.6805L178.258 11.5205C178.578 11.2405 178.618 10.7205 178.298 10.3605L178.218 10.2805L178.098 10.2005C171.818 5.72048 163.058 5.88048 156.938 11.0805C149.658 17.2405 148.778 28.1605 154.938 35.4005C160.018 41.4005 168.338 43.0405 175.178 40.0005ZM189.978 40.6805C189.978 41.1205 189.658 41.4805 189.218 41.4805H184.538C184.098 41.4805 183.738 41.1205 183.738 40.6805V21.1605H187.418L183.818 8.32048L183.738 8.00048V7.92048C183.738 7.48048 184.098 7.12048 184.538 7.12048H189.418C189.738 7.12048 190.058 7.36048 190.138 7.68048L193.298 18.9605L199.618 7.56048C199.778 7.28048 200.018 7.12048 200.338 7.12048H205.658C206.098 7.12048 206.458 7.48048 206.458 7.92048C206.458 8.04044 206.418 8.16039 206.378 8.28035L206.378 8.28048L206.298 8.40048L196.538 25.9605L206.578 40.1205L206.698 40.2405C206.738 40.3605 206.778 40.5205 206.778 40.6805C206.778 41.1205 206.458 41.4805 206.018 41.4805H200.298C200.058 41.4805 199.858 41.4005 199.698 41.2005L199.658 41.1205L189.978 27.5205V40.6805Z" fill="#F8D068"/>
<path id="LIFY" fill-rule="evenodd" clip-rule="evenodd" d="M254.763 40.3165C254.763 40.7521 254.327 41.1085 253.773 41.1085H236.983C236.547 41.1085 236.191 40.7521 236.191 40.3165V35.6833C236.191 35.2477 236.547 34.8913 236.983 34.8913H242.368V13.2301H236.983C236.547 13.2301 236.191 12.9133 236.191 12.4777V7.84449C236.191 7.40889 236.547 7.05249 236.983 7.05249H253.773C254.327 7.05249 254.763 7.40889 254.763 7.84449V12.4777C254.763 12.9133 254.327 13.2301 253.773 13.2301H248.585V34.8913H253.773C254.327 34.8913 254.763 35.2477 254.763 35.6833V40.3165ZM231.835 40.3561C231.835 40.7917 231.399 41.1085 230.845 41.1085H214.054C213.619 41.1085 213.262 40.7917 213.262 40.3561V8.04249C213.262 7.52769 213.619 7.09209 214.054 7.09209H218.687C219.123 7.09209 219.44 7.52769 219.44 8.04249V34.9309H230.845C231.399 34.9309 231.835 35.2873 231.835 35.7229V40.3561ZM264.94 41.1085C265.376 41.1085 265.693 40.7125 265.693 40.2769V27.1693H277.889C278.444 27.1693 278.84 26.8129 278.84 26.3773V21.7441C278.84 21.3085 278.444 20.9917 277.889 20.9917H275.672L269.217 13.2301H281.968C282.364 13.2301 282.721 12.8737 282.721 12.4381V7.88409C282.721 7.40889 282.364 7.05249 281.968 7.05249H260.307C259.871 7.05249 259.515 7.40889 259.515 7.88409V11.2501L267.593 20.9917H259.515V40.2769C259.515 40.7125 259.871 41.1085 260.307 41.1085H264.94ZM293.729 40.7521C293.611 40.9501 293.373 41.1085 293.096 41.1085H287.869C287.433 41.1085 287.116 40.7521 287.116 40.2769C287.116 40.1977 287.116 40.1185 287.156 40.0393L287.275 39.8017L295.274 24.4369L287.156 8.28009C287.148 8.24705 287.139 8.21573 287.131 8.18577C287.101 8.07212 287.077 7.97811 287.077 7.88409C287.077 7.80489 287.077 7.68609 287.116 7.60689L287.235 7.36929C287.393 7.17129 287.591 7.05249 287.869 7.05249H293.017C293.294 7.05249 293.571 7.21089 293.69 7.44849L298.798 17.6653L304.025 7.56729C304.065 7.52769 304.065 7.48809 304.065 7.48809L304.144 7.36929C304.263 7.17129 304.501 7.05249 304.738 7.05249H309.965C310.401 7.05249 310.718 7.44849 310.718 7.88409C310.718 8.00289 310.718 8.08209 310.678 8.20089L310.599 8.31969L302.006 24.8329L300.699 27.4069L293.809 40.5937L293.769 40.7125C293.769 40.7323 293.769 40.7422 293.764 40.7471C293.759 40.7521 293.749 40.7521 293.729 40.7521Z" fill="white"/>
</g>
</g>
</svg>
