<svg width="24" height="20" viewBox="0 0 24 20" fill="none" xmlns="http://www.w3.org/2000/svg">
<g id="Icon/Mail">
<g id="Shape">
<path fill-rule="evenodd" clip-rule="evenodd" d="M21.2877 1H2.05128C0.921618 1 0 1.92062 0 3.05128V16.7265C0 17.8533 0.917516 18.7778 2.05128 18.7778H21.2877C22.4146 18.7778 23.339 17.8603 23.339 16.7265V3.05128C23.339 1.92444 22.4215 1 21.2877 1ZM21.0045 2.36752L11.713 11.6591L2.34115 2.36752H21.0045ZM1.36752 3.32793V16.4433L7.95346 9.85739L1.36752 3.32793ZM2.3345 17.4103L8.92458 10.8202L11.2337 13.1095C11.501 13.3745 11.9324 13.3737 12.1986 13.1074L14.4501 10.8559L21.0045 17.4103H2.3345ZM15.4171 9.88889L21.9715 16.4433V3.33445L15.4171 9.88889Z" fill="white"/>
<path d="M11.713 11.6591L11.361 12.0141L11.7145 12.3646L12.0666 12.0126L11.713 11.6591ZM21.0045 2.36752L21.358 2.72107L22.2116 1.86752H21.0045V2.36752ZM2.34115 2.36752V1.86752H1.12666L1.98912 2.72259L2.34115 2.36752ZM1.36752 16.4433H0.867521V17.6504L1.72107 16.7969L1.36752 16.4433ZM1.36752 3.32793L1.71955 2.97286L0.867521 2.12814V3.32793H1.36752ZM7.95346 9.85739L8.30701 10.2109L8.66209 9.85586L8.30549 9.50232L7.95346 9.85739ZM8.92458 10.8202L9.27661 10.4651L8.92306 10.1146L8.57103 10.4666L8.92458 10.8202ZM2.3345 17.4103L1.98094 17.0567L1.12739 17.9103H2.3345V17.4103ZM11.2337 13.1095L11.5858 12.7544L11.5858 12.7544L11.2337 13.1095ZM12.1986 13.1074L11.8451 12.7538L11.845 12.7539L12.1986 13.1074ZM14.4501 10.8559L14.8037 10.5023L14.4501 10.1488L14.0966 10.5023L14.4501 10.8559ZM21.0045 17.4103V17.9103H22.2116L21.3581 17.0567L21.0045 17.4103ZM21.9715 16.4433L21.618 16.7968L22.4715 17.6504V16.4433H21.9715ZM15.4171 9.88889L15.0636 9.53534L14.71 9.88889L15.0636 10.2424L15.4171 9.88889ZM21.9715 3.33445H22.4715V2.12734L21.618 2.9809L21.9715 3.33445ZM2.05128 1.5H21.2877V0.5H2.05128V1.5ZM0.5 3.05128C0.5 2.19692 1.1976 1.5 2.05128 1.5V0.5C0.645635 0.5 -0.5 1.64431 -0.5 3.05128H0.5ZM0.5 16.7265V3.05128H-0.5V16.7265H0.5ZM2.05128 18.2778C1.19476 18.2778 0.5 17.5783 0.5 16.7265H-0.5C-0.5 18.1284 0.640275 19.2778 2.05128 19.2778V18.2778ZM21.2877 18.2778H2.05128V19.2778H21.2877V18.2778ZM22.839 16.7265C22.839 17.583 22.1395 18.2778 21.2877 18.2778V19.2778C22.6896 19.2778 23.839 18.1375 23.839 16.7265H22.839ZM22.839 3.05128V16.7265H23.839V3.05128H22.839ZM21.2877 1.5C22.1443 1.5 22.839 2.19949 22.839 3.05128H23.839C23.839 1.6494 22.6988 0.5 21.2877 0.5V1.5ZM12.0666 12.0126L21.358 2.72107L20.6509 2.01397L11.3594 11.3055L12.0666 12.0126ZM1.98912 2.72259L11.361 12.0141L12.065 11.304L2.69318 2.01245L1.98912 2.72259ZM21.0045 1.86752H2.34115V2.86752H21.0045V1.86752ZM1.86752 16.4433V3.32793H0.867521V16.4433H1.86752ZM7.59991 9.50384L1.01397 16.0898L1.72107 16.7969L8.30701 10.2109L7.59991 9.50384ZM1.01549 3.683L7.60143 10.2125L8.30549 9.50232L1.71955 2.97286L1.01549 3.683ZM8.57103 10.4666L1.98094 17.0567L2.68805 17.7638L9.27814 11.1737L8.57103 10.4666ZM11.5858 12.7544L9.27661 10.4651L8.57256 11.1752L10.8817 13.4646L11.5858 12.7544ZM11.845 12.7539C11.7735 12.8254 11.6576 12.8256 11.5858 12.7544L10.8817 13.4646C11.3445 13.9234 12.0913 13.9219 12.5522 13.4609L11.845 12.7539ZM14.0966 10.5023L11.8451 12.7538L12.5522 13.4609L14.8037 11.2094L14.0966 10.5023ZM21.3581 17.0567L14.8037 10.5023L14.0966 11.2094L20.651 17.7638L21.3581 17.0567ZM2.3345 17.9103H21.0045V16.9103H2.3345V17.9103ZM22.3251 16.0897L15.7707 9.53534L15.0636 10.2424L21.618 16.7968L22.3251 16.0897ZM21.4715 3.33445V16.4433H22.4715V3.33445H21.4715ZM15.7707 10.2424L22.3251 3.688L21.618 2.9809L15.0636 9.53534L15.7707 10.2424Z" fill="white"/>
</g>
</g>
</svg>
