<svg width="24" height="24" viewBox="0 0 24 24" fill="none" xmlns="http://www.w3.org/2000/svg">
<g id="Icon/Unsee">
<path id="Shape" fill-rule="evenodd" clip-rule="evenodd" d="M1.59723 0.274109C1.23175 -0.0913696 0.639404 -0.0913696 0.274109 0.274109C-0.0913696 0.639404 -0.0913696 1.23193 0.274109 1.59723L4.45624 5.77936C2.37506 7.49066 1.03088 9.55829 0.377197 10.7221C-0.062439 11.5049 -0.066101 12.4415 0.367493 13.2274C0.930542 14.2482 2.16229 16.2118 4.08417 17.8925C6.43011 19.9442 9.08423 20.9903 11.9734 21.0038C11.9766 21.0038 11.9797 21.0042 11.9829 21.0043L11.9859 21.0044L12.0101 21.0042L12.0297 21.0044C14.1495 21.0044 16.1572 20.4415 18.0071 19.3304L22.3544 23.6776C22.5372 23.8603 22.7765 23.9517 23.016 23.9517C23.2555 23.9517 23.4948 23.8603 23.6776 23.6776C24.043 23.3123 24.043 22.7197 23.6776 22.3544L1.59723 0.274109ZM8.85004 10.1732L10.2061 11.5292C10.1598 11.7178 10.1413 11.9174 10.1572 12.1238C10.2272 13.0347 10.9638 13.7712 11.8748 13.8413C12.0811 13.8571 12.2807 13.8386 12.4693 13.7924L13.8257 15.1489C12.4277 15.9474 10.6295 15.7423 9.44275 14.5558C8.26208 13.3753 8.05481 11.571 8.85004 10.1732ZM2.00885 11.6384C1.88855 11.8526 1.88745 12.1088 2.00592 12.3235C3.13403 14.3688 6.36603 19.1228 12.0115 19.1329C13.6318 19.1287 15.178 18.7293 16.621 17.9442L15.1809 16.504C14.2324 17.1689 13.1276 17.4998 12.024 17.4998C10.6097 17.4998 9.19757 16.957 8.11963 15.8789C6.21021 13.9697 5.98297 10.9805 7.49469 8.81781L5.78613 7.10925C3.85931 8.64642 2.6098 10.5683 2.00885 11.6384ZM8.31537 4.55823C8.17493 4.06091 8.46405 3.54401 8.96136 3.40338C10.0479 3.0965 11.0515 2.94708 12.0295 2.94708C14.9097 2.94708 17.5692 3.99573 19.934 6.0639C21.8553 7.74426 23.0993 9.70587 23.6697 10.7256C24.1066 11.5062 24.1102 12.4402 23.6796 13.2239C23.6426 13.2913 23.5977 13.3531 23.5466 13.4083C23.1348 14.1335 22.4813 15.1599 21.5759 16.2213C21.3907 16.4383 21.128 16.5498 20.8636 16.5498C20.6488 16.5498 20.4329 16.4764 20.2568 16.326C19.8636 15.9906 19.817 15.4001 20.1522 15.007C21.0342 13.9731 21.6491 12.9771 22.0095 12.3235C22.0344 12.2785 22.0627 12.236 22.0941 12.1961C22.1526 12.0125 22.1334 11.8121 22.0367 11.6393C20.8894 9.58832 17.6175 4.81842 12.0295 4.81842C11.226 4.81842 10.3889 4.94458 9.47003 5.20404C8.9729 5.34448 8.45581 5.05554 8.31537 4.55823ZM15.926 8.07257C14.913 7.05981 13.5668 6.48596 12.1351 6.45703C11.6171 6.44659 11.1912 6.85675 11.1806 7.37347C11.1702 7.89001 11.5805 8.31738 12.097 8.32782C13.0433 8.34705 13.9332 8.72626 14.6027 9.39569C15.2919 10.0849 15.6714 11.0012 15.6714 11.9758C15.6714 12.4926 16.0902 12.9113 16.6069 12.9113C17.1238 12.9113 17.5426 12.4926 17.5426 11.9758C17.5426 10.5013 16.9684 9.11517 15.926 8.07257Z" fill="#A7A6C5"/>
</g>
</svg>
